<svg width="32" height="30" viewBox="0 0 32 30" fill="none" xmlns="http://www.w3.org/2000/svg">
<g id="Group">
<g id="Group_2">
<path id="Vector" d="M31.5832 14.9858L28.1265 11.0333L28.6082 5.80583L23.494 4.64417L20.8165 0.125L15.9998 2.19333L11.1832 0.125L8.50567 4.64417L3.3915 5.79167L3.87317 11.0333L0.416504 14.9858L3.87317 18.9383L3.3915 24.18L8.50567 25.3417L11.1832 29.875L15.9998 27.7925L20.8165 29.8608L23.494 25.3417L28.6082 24.18L28.1265 18.9525L31.5832 14.9858ZM25.9873 17.0825L25.194 18.0033L25.3073 19.2075L25.5623 21.97L22.8707 22.5792L21.6807 22.8483L21.0573 23.8967L19.6548 26.2767L17.1332 25.1858L15.9998 24.7042L14.8807 25.1858L12.359 26.2767L10.9565 23.9108L10.3332 22.8625L9.14317 22.5933L6.4515 21.9842L6.7065 19.2075L6.81984 18.0033L6.0265 17.0825L4.199 15L6.0265 12.9033L6.81984 11.9825L6.69234 10.7642L6.43734 8.01583L9.129 7.40667L10.319 7.1375L10.9423 6.08917L12.3448 3.70917L14.8665 4.8L15.9998 5.28167L17.119 4.8L19.6407 3.70917L21.0432 6.08917L21.6665 7.1375L22.8565 7.40667L25.5482 8.01583L25.2932 10.7783L25.1798 11.9825L25.9732 12.9033L27.8007 14.9858L25.9873 17.0825Z" fill="white"/>
<path id="Vector_2" d="M13.294 17.4792L10.0073 14.1783L7.91064 16.2892L13.294 21.6867L23.6923 11.26L21.5956 9.14917L13.294 17.4792Z" fill="white"/>
</g>
</g>
</svg>
